<svg width="32" height="32" viewBox="0 0 32 32" fill="none" xmlns="http://www.w3.org/2000/svg">
<path d="M1.8551 1.8557C3.22419 0.486609 5.45407 0.477298 6.81866 1.84189L13.945 8.9682C14.9213 9.94449 16.5042 9.94446 17.4805 8.9682L24.9466 1.50214C26.2828 0.165937 28.4496 0.165939 29.7858 1.50214C31.122 2.83835 31.122 5.0052 29.7858 6.34141L22.3198 13.8075C21.3435 14.7838 21.3435 16.3667 22.3198 17.343L29.4461 24.4693C30.8107 25.8339 30.8014 28.0638 29.4323 29.4329C28.0632 30.802 25.8333 30.8113 24.4687 29.4467L17.3424 22.3204C16.3661 21.3441 14.7832 21.3441 13.8069 22.3204L6.34081 29.7864C5.0046 31.1226 2.83775 31.1226 1.50155 29.7864C0.165342 28.4502 0.165343 26.2834 1.50155 24.9472L8.9676 17.4811C9.94386 16.5048 9.94389 14.9219 8.9676 13.9456L1.84129 6.81926C0.476702 5.45467 0.486013 3.22479 1.8551 1.8557Z" fill="#EA0000" stroke="black"/>
</svg>
