<svg width="41" height="37" viewBox="0 0 41 37" fill="none" xmlns="http://www.w3.org/2000/svg">
<path fill-rule="evenodd" clip-rule="evenodd" d="M38.4422 15.7349L39.0347 14.7512C38.8559 15.0922 38.6579 15.4206 38.4422 15.7349Z" fill="#EA0000"/>
<path d="M23.0357 9.93376L24.9355 16.601L21.2566 21.4602L24.1184 27.4132L20.7036 34.1031C20.7293 34.8146 21.6133 35.1267 22.0799 34.5889L38.4422 15.7349L39.0347 14.7512C39.5826 13.707 39.9508 12.545 40.0955 11.3097C40.1341 10.9801 40.1568 10.6453 40.1627 10.3061C40.2556 4.98044 36.1832 0.590721 31.0667 0.501411C25.9501 0.412101 23.1287 4.60807 23.0357 9.93376Z" fill="#EA0000"/>
<path d="M39.0347 14.7512C39.5826 13.707 39.9508 12.545 40.0955 11.3097C40.1341 10.9801 40.1568 10.6453 40.1627 10.3061C40.2556 4.98044 36.1832 0.590721 31.0667 0.501411C25.9501 0.412101 23.1287 4.60807 23.0357 9.93376L24.9355 16.601L21.2566 21.4602L24.1184 27.4132L20.7036 34.1031C20.7293 34.8146 21.6133 35.1267 22.0799 34.5889L38.4422 15.7349M39.0347 14.7512C38.8559 15.0922 38.6579 15.4206 38.4422 15.7349M39.0347 14.7512L38.4422 15.7349" stroke="black"/>
<path fill-rule="evenodd" clip-rule="evenodd" d="M2.22195 15.7453L1.62944 14.7616C1.80831 15.1026 2.00632 15.431 2.22195 15.7453Z" fill="#EA0000"/>
<path d="M18.3293 9.96863L19.8971 16.4271L17.1784 21.3475L20.4374 27.289L19.9753 33.6252C19.9444 34.5104 18.8447 34.8994 18.2641 34.2304L2.22195 15.7453L1.62944 14.7616C1.0816 13.7174 0.713344 12.5554 0.568693 11.3201C0.530102 10.9905 0.507423 10.6557 0.501502 10.3165C0.408542 4.99084 4.48096 0.601117 9.59751 0.511807C14.7141 0.422497 18.2364 4.64294 18.3293 9.96863Z" fill="#EA0000"/>
<path d="M1.62944 14.7616C1.0816 13.7174 0.713344 12.5554 0.568694 11.3201C0.530101 10.9905 0.507423 10.6557 0.501502 10.3165C0.408542 4.99084 4.48096 0.601117 9.59751 0.511807C14.7141 0.422497 18.2364 4.64294 18.3293 9.96863L19.8971 16.4271L17.1784 21.3475L20.4374 27.289L19.9753 33.6252C19.9444 34.5104 18.8447 34.8994 18.2641 34.2304L2.22195 15.7453M1.62944 14.7616C1.80831 15.1026 2.00632 15.431 2.22195 15.7453M1.62944 14.7616L2.22195 15.7453" stroke="black"/>
</svg>
