<svg width="30" height="48" viewBox="0 0 30 48" fill="none" xmlns="http://www.w3.org/2000/svg">
<path d="M9.36621 1.56738C11.9935 0.506324 14.8858 0.228453 17.6758 0.769531C20.4656 1.31063 23.0263 2.6459 25.0352 4.60449C27.0439 6.563 28.4104 9.05664 28.9639 11.7695C29.5173 14.4823 29.2334 17.2944 28.1475 19.8506C27.0615 22.4069 25.2216 24.5941 22.8584 26.1338C21.1776 27.2288 19.2854 27.9613 17.3096 28.293C15.7398 28.5567 14.3704 29.8381 14.3701 31.5303V32.7139C14.37 34.4907 12.9292 35.9307 11.1523 35.9307C9.3755 35.9307 7.93473 34.4907 7.93457 32.7139V28.9961C7.93459 25.1661 11.0401 22.0614 14.8701 22.0615C16.399 22.0615 17.8948 21.6195 19.168 20.79C20.4412 19.9605 21.4357 18.7798 22.0234 17.3965C22.6111 16.0131 22.7646 14.49 22.4648 13.0205C22.165 11.551 21.4257 10.2024 20.3418 9.14551C19.2579 8.08873 17.8778 7.36999 16.3779 7.0791C14.8782 6.78835 13.3236 6.93797 11.9102 7.50879C10.4965 8.07971 9.28606 9.04712 8.43359 10.291C8.3609 10.3971 8.2915 10.5051 8.22461 10.6143C7.68966 11.4873 7.03847 12.3439 6.28613 12.9775C5.53613 13.6092 4.71193 13.998 3.8125 13.998C2.89427 13.998 2.06429 13.6181 1.53027 13.0371C1.00315 12.4635 0.762408 11.697 0.992188 10.8643C1.39625 9.39999 2.04405 8.0008 2.91797 6.72559C4.49536 4.4239 6.73921 2.62841 9.36621 1.56738Z" fill="#EA0000" stroke="black"/>
<circle cx="10.9665" cy="42.9369" r="3.77507" fill="#EA0000" stroke="black"/>
</svg>
