<svg width="19" height="33" viewBox="0 0 19 33" fill="none" xmlns="http://www.w3.org/2000/svg">
<path d="M6.91875 22.2083C6.91875 19.9021 7.12546 18.2439 7.53888 17.2337C7.95229 16.2235 8.82753 15.1199 10.1646 13.9229C11.3319 12.8979 12.222 12.0084 12.8347 11.2545C13.4474 10.5006 13.7532 9.63899 13.7521 8.66979C13.7521 7.50243 13.3609 6.53437 12.5785 5.76562C11.796 4.99687 10.7067 4.6125 9.31042 4.6125C7.85833 4.6125 6.75532 5.05382 6.00137 5.93646C5.24743 6.8191 4.71329 7.71597 4.39896 8.62708L0 6.74792C0.597917 4.92569 1.6941 3.34549 3.28854 2.00729C4.88299 0.669097 6.89028 0 9.31042 0C12.3 0 14.5994 0.833097 16.2087 2.49929C17.8179 4.16549 18.622 6.16537 18.6208 8.49896C18.6208 9.92257 18.315 11.14 17.7035 12.1514C17.0919 13.1627 16.1307 14.3084 14.8198 15.5885C13.4247 16.9267 12.5779 17.9449 12.2795 18.643C11.9811 19.3412 11.8313 20.5296 11.8302 22.2083H6.91875ZM9.31042 32.4583C8.37083 32.4583 7.56678 32.1241 6.89825 31.4555C6.22972 30.787 5.89489 29.9824 5.89375 29.0417C5.89261 28.1009 6.22744 27.2969 6.89825 26.6295C7.56906 25.9621 8.37311 25.6273 9.31042 25.625C10.2477 25.6227 11.0523 25.9576 11.7243 26.6295C12.3962 27.3014 12.7305 28.1055 12.7271 29.0417C12.7237 29.9778 12.3894 30.7825 11.7243 31.4555C11.0592 32.1286 10.2546 32.4629 9.31042 32.4583Z" fill="#E00000"/>
</svg>
