<svg width="41" height="38" viewBox="0 0 41 38" fill="none" xmlns="http://www.w3.org/2000/svg">
<path fill-rule="evenodd" clip-rule="evenodd" d="M2.04247 15.7527C1.91521 15.5534 1.79494 15.3495 1.682 15.1412L2.04247 15.7527Z" fill="#EA0000"/>
<path fill-rule="evenodd" clip-rule="evenodd" d="M38.7831 16.124L39.3907 15.0958C39.2081 15.4517 39.005 15.795 38.7831 16.124Z" fill="#EA0000"/>
<path fill-rule="evenodd" clip-rule="evenodd" d="M1.682 15.1412L2.04247 15.7527C1.91521 15.5534 1.79494 15.3495 1.682 15.1412Z" fill="#EA0000"/>
<path fill-rule="evenodd" clip-rule="evenodd" d="M1.682 15.1412L2.04247 15.7527C1.91521 15.5534 1.79494 15.3495 1.682 15.1412Z" fill="#EA0000"/>
<path d="M1.682 15.1412L2.04247 15.7527L19.7406 36.6052C20.1389 37.0745 20.8628 37.0759 21.2629 36.6081L38.7831 16.124L39.3907 15.0958C39.95 14.0057 40.3175 12.7972 40.4475 11.5169C40.4822 11.1752 40.5 10.8285 40.5 10.4775C40.5 4.96709 36.1181 0.5 30.7128 0.5C25.3075 0.5 20.9256 4.96709 20.9256 10.4775C20.9256 4.96709 16.3532 0.5 10.7128 0.5C5.07248 0.5 0.5 4.96709 0.5 10.4775C0.5 10.8285 0.518549 11.1752 0.554741 11.5169C0.692274 12.8151 1.08459 14.0393 1.682 15.1412Z" fill="#EA0000"/>
<path d="M2.04247 15.7527C1.91521 15.5534 1.79494 15.3495 1.682 15.1412M2.04247 15.7527L1.682 15.1412M2.04247 15.7527L19.7406 36.6052C20.1389 37.0745 20.8628 37.0759 21.2629 36.6081L38.7831 16.124M1.682 15.1412C1.08459 14.0393 0.692274 12.8151 0.554741 11.5169C0.518549 11.1752 0.5 10.8285 0.5 10.4775C0.5 4.96709 5.07248 0.5 10.7128 0.5C16.3532 0.5 20.9256 4.96709 20.9256 10.4775C20.9256 4.96709 25.3075 0.5 30.7128 0.5C36.1181 0.5 40.5 4.96709 40.5 10.4775C40.5 10.8285 40.4822 11.1752 40.4475 11.5169C40.3175 12.7972 39.95 14.0057 39.3907 15.0958M38.7831 16.124L39.3907 15.0958M38.7831 16.124C39.005 15.795 39.2081 15.4517 39.3907 15.0958" stroke="black"/>
</svg>
